<?xml version="1.0" encoding="UTF-8" standalone="no"?>
<svg
   xmlns:dc="http://purl.org/dc/elements/1.1/"
   xmlns:cc="http://creativecommons.org/ns#"
   xmlns:rdf="http://www.w3.org/1999/02/22-rdf-syntax-ns#"
   xmlns:svg="http://www.w3.org/2000/svg"
   xmlns="http://www.w3.org/2000/svg"
   xmlns:sodipodi="http://sodipodi.sourceforge.net/DTD/sodipodi-0.dtd"
   xmlns:inkscape="http://www.inkscape.org/namespaces/inkscape"
   viewBox="0 0 230.99729 70.106415"
   version="1.1"
   id="svg8"
   inkscape:version="1.0.1 (3bc2e813f5, 2020-09-07, custom)"
   sodipodi:docname="logo_full.svg"
   width="230.99728"
   height="70.106415">
  <defs
     id="defs2" />
  <sodipodi:namedview
     id="base"
     pagecolor="#ffffff"
     bordercolor="#666666"
     borderopacity="1.0"
     inkscape:pageopacity="0.0"
     inkscape:pageshadow="2"
     inkscape:zoom="0.9899495"
     inkscape:cx="-63.339369"
     inkscape:cy="-73.388172"
     inkscape:document-units="mm"
     inkscape:current-layer="g1003"
     inkscape:document-rotation="0"
     showgrid="false"
     inkscape:window-width="1920"
     inkscape:window-height="1050"
     inkscape:window-x="0"
     inkscape:window-y="30"
     inkscape:window-maximized="0" />
  <metadata
     id="metadata5">
    <rdf:RDF>
      <cc:Work
         rdf:about="">
        <dc:format>image/svg+xml</dc:format>
        <dc:type
           rdf:resource="http://purl.org/dc/dcmitype/StillImage" />
        <dc:title />
      </cc:Work>
    </rdf:RDF>
  </metadata>
  <g
     inkscape:label="Layer 1"
     inkscape:groupmode="layer"
     id="layer1"
     transform="translate(-7.2630322,-95.040358)">
    <g
       id="g1003">
      <g
         id="g1058">
        <g
           id="Tools_box"
           data-name="Tools box"
           transform="matrix(1.1684403,0,0,1.1684403,4.9261516,92.703477)">
          <path
             d="M 59,33 H 5 a 2,2 0 0 0 -2,2 v 24 a 2,2 0 0 0 2,2 h 54 a 2,2 0 0 0 2,-2 V 35 A 2,2 0 0 0 59,33 Z M 41,41 H 23 a 2,2 0 0 1 0,-4 h 18 a 2,2 0 0 1 0,4 z"
             fill="#c49a6c"
             id="path63" />
          <path
             d="M 11,57 A 2,2 0 0 1 9,55 V 33 H 5 a 2,2 0 0 0 -2,2 v 24 a 2,2 0 0 0 2,2 h 54 a 2,2 0 0 0 2,-2 v -2 z"
             fill="#a97c50"
             id="path65" />
          <path
             d="M 57,7 H 7 A 2,2 0 0 0 5,9 V 33 H 9 V 11 h 46 v 22 h 4 V 9 A 2,2 0 0 0 57,7 Z"
             fill="#8b5e3c"
             id="path67" />
          <path
             d="M 9,7 H 7 A 2,2 0 0 0 5,9 V 33 H 7 V 9 A 2,2 0 0 1 9,7 Z"
             fill="#754c29"
             id="path69" />
          <path
             d="m 55,11 h 2 v 22 h -2 z"
             fill="#754c29"
             id="path71" />
          <path
             d="M 41,5 A 2,2 0 0 0 39,3 H 25 a 2,2 0 0 0 -2,2 v 2 h 18 z"
             fill="#c49a6c"
             id="path73" />
          <path
             d="m 45,23 v -2 h 3 v 1 a 1,1 0 0 0 1,1 h 2 v -8 h -2 a 1,1 0 0 0 -1,1 v 1 h -3 v -1 a 1,1 0 0 0 -1,-1 h -5 a 8,8 0 0 0 -8,8 v 2 l 2.8,-3.5 A 4,4 0 0 1 36.922,20 H 37 v 3 z"
             fill="#2488ff"
             id="path75" />
          <path
             d="m 39,23 h 4 v 10 h -4 z"
             fill="#8b5e3c"
             id="path77" />
          <path
             d="M 23.906,26.806 A 6.994,6.994 0 0 0 23,14.68 V 21 l -3,2 -3,-2 V 14.68 A 6.994,6.994 0 0 0 16.094,26.806 2.01,2.01 0 0 1 17,28.472 V 33 h 6 v -4.528 a 2.01,2.01 0 0 1 0.906,-1.666 z"
             fill="#ffcd00"
             id="path79" />
          <path
             d="M 18.094,24.806 A 6.993,6.993 0 0 1 16.152,15.156 6.994,6.994 0 0 0 16.094,26.806 2.01,2.01 0 0 1 17,28.472 V 33 h 2 v -6.528 a 2.01,2.01 0 0 0 -0.906,-1.666 z"
             fill="#ebbf00"
             id="path81" />
          <path
             d="m 39,23 h 2 v 10 h -2 z"
             fill="#754c29"
             id="path83" />
          <path
             d="M 60,32.184 V 9 A 3,3 0 0 0 57,6 H 42 V 5 A 3,3 0 0 0 39,2 H 25 A 3,3 0 0 0 22,5 V 6 H 7 A 3,3 0 0 0 4,9 V 32.184 A 3,3 0 0 0 2,35 v 24 a 3,3 0 0 0 3,3 h 54 a 3,3 0 0 0 3,-3 V 35 A 3,3 0 0 0 60,32.184 Z M 24,5 a 1,1 0 0 1 1,-1 h 14 a 1,1 0 0 1 1,1 V 6 H 24 Z M 6,9 A 1,1 0 0 1 7,8 h 50 a 1,1 0 0 1 1,1 V 32 H 56 V 11 A 1,1 0 0 0 55,10 H 9 A 1,1 0 0 0 8,11 V 32 H 6 Z m 38,23 v -8 h 1 a 1,1 0 0 0 1,-1 v -1 h 1 a 2,2 0 0 0 2,2 h 2 a 1,1 0 0 0 1,-1 v -8 a 1,1 0 0 0 -1,-1 h -2 a 2,2 0 0 0 -2,2 h -1 a 2,2 0 0 0 -2,-2 h -5 a 9.01,9.01 0 0 0 -9,9 v 2 A 1,1 0 0 0 30.669,25.944 1.027,1.027 0 0 0 31,26 1,1 0 0 0 31.781,25.625 l 2.8,-3.5 A 2.948,2.948 0 0 1 36,21.15 V 23 a 1,1 0 0 0 1,1 h 1 v 8 H 24 V 28.472 A 1.012,1.012 0 0 1 24.463,27.637 7.994,7.994 0 0 0 23.427,13.776 1,1 0 0 0 22,14.676 v 5.785 L 20,21.8 18,20.467 V 14.68 A 1,1 0 0 0 16.573,13.78 7.993,7.993 0 0 0 15.537,27.64 1.015,1.015 0 0 1 16,28.476 V 32 H 10 V 12 h 44 v 20 z m 1,-14 h 3 a 1,1 0 0 0 1,-1 v -1 h 1 v 6 h -1 v -1 a 1,1 0 0 0 -1,-1 h -3 a 1,1 0 0 0 -1,1 v 1 h -6 v -2 a 1.068,1.068 0 0 0 -1.077,-1 4.975,4.975 0 0 0 -3.905,1.877 l -0.956,1.2 A 7.009,7.009 0 0 1 39,16 h 5 v 1 a 1,1 0 0 0 1,1 z m -5,6 h 2 v 8 H 40 Z M 16.65,25.975 A 6,6 0 0 1 16,16.522 V 21 a 1,1 0 0 0 0.445,0.832 l 3,2 a 1,1 0 0 0 1.11,0 l 3,-2 A 1,1 0 0 0 24,21 v -4.478 a 6,6 0 0 1 -0.65,9.454 3.008,3.008 0 0 0 -1.35,2.5 V 32 H 18 V 28.472 A 3.011,3.011 0 0 0 16.65,25.975 Z M 60,59 a 1,1 0 0 1 -1,1 H 5 A 1,1 0 0 1 4,59 V 35 a 1,1 0 0 1 1,-1 h 54 a 1,1 0 0 1 1,1 z"
             id="path85" />
          <path
             d="M 41,36 H 23 a 3,3 0 0 0 0,6 h 18 a 3,3 0 0 0 0,-6 z m 0,4 H 23 a 1,1 0 0 1 0,-2 h 18 a 1,1 0 0 1 0,2 z"
             id="path87" />
        </g>
        <text
           xml:space="preserve"
           style="font-style:normal;font-variant:normal;font-weight:normal;font-stretch:normal;font-size:28.0971px;line-height:1.25;font-family:Roboto;-inkscape-font-specification:'Roboto, Normal';font-variant-ligatures:normal;font-variant-caps:normal;font-variant-numeric:normal;font-variant-east-asian:normal;fill:#111827;fill-opacity:1;stroke-width:0.702429"
           x="83.026588"
           y="132.06664"
           id="text114"><tspan
             sodipodi:role="line"
             id="tspan112"
             x="83.026588"
             y="132.06664"
             style="font-style:normal;font-variant:normal;font-weight:normal;font-stretch:normal;font-size:28.0971px;font-family:Roboto;-inkscape-font-specification:'Roboto, Normal';font-variant-ligatures:normal;font-variant-caps:normal;font-variant-numeric:normal;font-variant-east-asian:normal;fill:#111827;fill-opacity:1;stroke-width:0.702429">Tibor Mašek</tspan></text>
        <text
           xml:space="preserve"
           style="font-style:italic;font-variant:normal;font-weight:normal;font-stretch:normal;font-size:13.0122px;line-height:1.25;font-family:Roboto;-inkscape-font-specification:'Roboto, Italic';font-variant-ligatures:normal;font-variant-caps:normal;font-variant-numeric:normal;font-variant-east-asian:normal;fill:#111827;fill-opacity:1;stroke-width:0.325307"
           x="92.011108"
           y="148.12067"
           id="text122"><tspan
             sodipodi:role="line"
             id="tspan120"
             x="92.011108"
             y="148.12067"
             style="font-style:italic;font-variant:normal;font-weight:normal;font-stretch:normal;font-size:13.0122px;font-family:Roboto;-inkscape-font-specification:'Roboto, Italic';font-variant-ligatures:normal;font-variant-caps:normal;font-variant-numeric:normal;font-variant-east-asian:normal;fill:#111827;fill-opacity:1;stroke-width:0.325307">Když máte obě ruce levé</tspan></text>
      </g>
    </g>
  </g>
</svg>
