<svg height="512" viewBox="0 0 64 64" width="512" xmlns="http://www.w3.org/2000/svg"><g id="Tools_box" data-name="Tools box"><path d="m59 33h-54a2 2 0 0 0 -2 2v24a2 2 0 0 0 2 2h54a2 2 0 0 0 2-2v-24a2 2 0 0 0 -2-2zm-18 8h-18a2 2 0 0 1 0-4h18a2 2 0 0 1 0 4z" fill="#c49a6c"/><path d="m11 57a2 2 0 0 1 -2-2v-22h-4a2 2 0 0 0 -2 2v24a2 2 0 0 0 2 2h54a2 2 0 0 0 2-2v-2z" fill="#a97c50"/><path d="m57 7h-50a2 2 0 0 0 -2 2v24h4v-22h46v22h4v-24a2 2 0 0 0 -2-2z" fill="#8b5e3c"/><path d="m9 7h-2a2 2 0 0 0 -2 2v24h2v-24a2 2 0 0 1 2-2z" fill="#754c29"/><path d="m55 11h2v22h-2z" fill="#754c29"/><path d="m41 5a2 2 0 0 0 -2-2h-14a2 2 0 0 0 -2 2v2h18z" fill="#c49a6c"/><path d="m45 23v-2h3v1a1 1 0 0 0 1 1h2v-8h-2a1 1 0 0 0 -1 1v1h-3v-1a1 1 0 0 0 -1-1h-5a8 8 0 0 0 -8 8v2l2.8-3.5a4 4 0 0 1 3.122-1.5h.078v3z" fill="#2488ff"/><path d="m39 23h4v10h-4z" fill="#8b5e3c"/><path d="m23.906 26.806a6.994 6.994 0 0 0 -.906-12.126v6.32l-3 2-3-2v-6.32a6.994 6.994 0 0 0 -.906 12.126 2.01 2.01 0 0 1 .906 1.666v4.528h6v-4.528a2.01 2.01 0 0 1 .906-1.666z" fill="#ffcd00"/><path d="m18.094 24.806a6.993 6.993 0 0 1 -1.942-9.65 6.994 6.994 0 0 0 -.058 11.65 2.01 2.01 0 0 1 .906 1.666v4.528h2v-6.528a2.01 2.01 0 0 0 -.906-1.666z" fill="#ebbf00"/><path d="m39 23h2v10h-2z" fill="#754c29"/><path d="m60 32.184v-23.184a3 3 0 0 0 -3-3h-15v-1a3 3 0 0 0 -3-3h-14a3 3 0 0 0 -3 3v1h-15a3 3 0 0 0 -3 3v23.184a3 3 0 0 0 -2 2.816v24a3 3 0 0 0 3 3h54a3 3 0 0 0 3-3v-24a3 3 0 0 0 -2-2.816zm-36-27.184a1 1 0 0 1 1-1h14a1 1 0 0 1 1 1v1h-16zm-18 4a1 1 0 0 1 1-1h50a1 1 0 0 1 1 1v23h-2v-21a1 1 0 0 0 -1-1h-46a1 1 0 0 0 -1 1v21h-2zm38 23v-8h1a1 1 0 0 0 1-1v-1h1a2 2 0 0 0 2 2h2a1 1 0 0 0 1-1v-8a1 1 0 0 0 -1-1h-2a2 2 0 0 0 -2 2h-1a2 2 0 0 0 -2-2h-5a9.01 9.01 0 0 0 -9 9v2a1 1 0 0 0 .669.944 1.027 1.027 0 0 0 .331.056 1 1 0 0 0 .781-.375l2.8-3.5a2.948 2.948 0 0 1 1.419-.975v1.85a1 1 0 0 0 1 1h1v8h-14v-3.528a1.012 1.012 0 0 1 .463-.835 7.994 7.994 0 0 0 -1.036-13.861 1 1 0 0 0 -1.427.9v5.785l-2 1.339-2-1.333v-5.787a1 1 0 0 0 -1.427-.9 7.993 7.993 0 0 0 -1.036 13.86 1.015 1.015 0 0 1 .463.836v3.524h-6v-20h44v20zm1-14h3a1 1 0 0 0 1-1v-1h1v6h-1v-1a1 1 0 0 0 -1-1h-3a1 1 0 0 0 -1 1v1h-6v-2a1.068 1.068 0 0 0 -1.077-1 4.975 4.975 0 0 0 -3.905 1.877l-.956 1.2a7.009 7.009 0 0 1 6.938-6.077h5v1a1 1 0 0 0 1 1zm-5 6h2v8h-2zm-23.35 1.975a6 6 0 0 1 -.65-9.453v4.478a1 1 0 0 0 .445.832l3 2a1 1 0 0 0 1.11 0l3-2a1 1 0 0 0 .445-.832v-4.478a6 6 0 0 1 -.65 9.454 3.008 3.008 0 0 0 -1.35 2.5v3.524h-4v-3.528a3.011 3.011 0 0 0 -1.35-2.497zm43.35 33.025a1 1 0 0 1 -1 1h-54a1 1 0 0 1 -1-1v-24a1 1 0 0 1 1-1h54a1 1 0 0 1 1 1z"/><path d="m41 36h-18a3 3 0 0 0 0 6h18a3 3 0 0 0 0-6zm0 4h-18a1 1 0 0 1 0-2h18a1 1 0 0 1 0 2z"/></g></svg>